<?xml version="1.0" encoding="utf-8"?>
<!-- Generator: Adobe Illustrator 27.5.0, SVG Export Plug-In . SVG Version: 6.00 Build 0)  -->
<svg version="1.1" xmlns="http://www.w3.org/2000/svg" xmlns:xlink="http://www.w3.org/1999/xlink" x="0px" y="0px"
	 viewBox="0 0 500 500" style="enable-background:new 0 0 500 500;" xml:space="preserve">
<g id="Background_complete">
	<g>
		<g id="freepik--Bitcoin--inject-488_00000129905037384028084720000002324447338664643006_">
			<path style="fill:#E0E0E0;" d="M203.375,385.804c0.081,13.849,10.688,25.014,23.689,24.937l4.627-0.027l-0.295-50.151
				l-4.627,0.027C213.767,360.666,203.293,371.955,203.375,385.804z"/>
			<path style="fill:#E6E6E6;" d="M249.379,403.265c-9.735,9.85-25.612,9.944-35.462,0.209c-9.85-9.735-9.944-25.612-0.209-35.462
				c9.735-9.85,25.612-9.944,35.463-0.209C259.021,377.537,259.114,393.414,249.379,403.265z"/>
			
				<ellipse transform="matrix(0.896 -0.4441 0.4441 0.896 -147.188 142.9624)" style="fill:#EBEBEB;" cx="231.544" cy="385.638" rx="20.077" ry="20.077"/>
		</g>
		<g>
			<path style="fill:#FAFAFA;" d="M234.695,393.565c-1.051,0.787-2.287,1.204-3.707,1.254l-0.101,0.655
				c-0.051,0.331-0.219,0.605-0.502,0.821c-0.284,0.215-0.591,0.298-0.923,0.247c-0.332-0.051-0.592-0.216-0.782-0.496
				c-0.19-0.28-0.258-0.594-0.204-0.943l0.089-0.576c-1.216-0.348-2.227-0.897-3.032-1.647c-0.806-0.749-1.336-1.573-1.591-2.471
				c-0.114-0.428-0.15-0.774-0.11-1.036c0.054-0.35,0.226-0.631,0.519-0.846c0.291-0.214,0.621-0.293,0.989-0.236
				c0.297,0.046,0.545,0.173,0.745,0.383c0.2,0.21,0.332,0.463,0.394,0.758c0.103,0.606,0.389,1.137,0.855,1.593
				c0.466,0.457,1.02,0.806,1.663,1.047l0.967-5.591c-1.378-0.695-2.426-1.473-3.142-2.334c-0.717-0.862-0.982-1.894-0.796-3.1
				c0.188-1.223,0.765-2.185,1.731-2.885c0.966-0.701,2.197-1.035,3.694-1.002l0.085-0.55c0.051-0.332,0.215-0.606,0.49-0.823
				c0.274-0.217,0.568-0.302,0.883-0.253c0.332,0.051,0.6,0.222,0.806,0.513c0.206,0.292,0.283,0.603,0.232,0.935l-0.081,0.524
				c1.394,0.358,2.437,0.929,3.129,1.715c0.693,0.786,0.962,1.686,0.806,2.699c-0.059,0.384-0.231,0.685-0.514,0.9
				c-0.284,0.216-0.6,0.297-0.95,0.243c-0.314-0.048-0.565-0.19-0.753-0.424c-0.187-0.234-0.274-0.512-0.261-0.832
				c0.005-0.375-0.16-0.735-0.49-1.081c-0.332-0.346-0.793-0.627-1.386-0.844l-0.87,4.963c3.004,1.517,4.331,3.411,3.982,5.681
				C236.366,391.765,235.745,392.779,234.695,393.565z M228.882,382.519c0.297,0.395,0.806,0.808,1.527,1.241l0.674-4.215
				c-0.752,0.01-1.343,0.164-1.773,0.465c-0.431,0.301-0.687,0.712-0.768,1.237C228.471,381.7,228.584,382.125,228.882,382.519z
				 M233.197,391.698c0.498-0.388,0.79-0.861,0.876-1.421c0.07-0.454-0.039-0.905-0.329-1.351c-0.289-0.447-0.827-0.901-1.614-1.362
				l-0.768,4.817C232.087,392.315,232.699,392.087,233.197,391.698z"/>
		</g>
		<path style="fill:#E0E0E0;" d="M217.894,370.444c8.396-7.533,21.31-6.832,28.842,1.564c7.532,8.397,6.832,21.309-1.564,28.842
			c6.802-7.773,6.731-19.401-0.167-27.089c-7.533-8.397-20.446-9.097-28.842-1.564C216.704,371.578,217.282,370.993,217.894,370.444
			z"/>
	</g>
	<g>
		<g id="freepik--Bitcoin--inject-488_00000003067389879000999590000003504982578647817150_">
			<path style="fill:#E0E0E0;" d="M344.099,318.487c1.095,10.12,9.684,17.491,19.185,16.463l3.381-0.366l-3.964-36.648l-3.381,0.366
				C349.819,299.331,343.004,308.367,344.099,318.487z"/>
			<path style="fill:#E6E6E6;" d="M379.041,327.817c-6.382,7.93-17.984,9.185-25.914,2.803c-7.93-6.382-9.185-17.984-2.803-25.914
				c6.382-7.93,17.984-9.185,25.914-2.803C384.168,308.285,385.423,319.887,379.041,327.817z"/>
			
				<ellipse transform="matrix(0.9891 -0.147 0.147 0.9891 -42.5293 57.0452)" style="fill:#EBEBEB;" cx="364.683" cy="316.261" rx="14.756" ry="14.756"/>
		</g>
		<g>
			<path style="fill:#F5F5F5;" d="M367.579,321.822c-0.71,0.654-1.582,1.051-2.617,1.194l-0.025,0.487
				c-0.013,0.246-0.115,0.459-0.306,0.638c-0.191,0.179-0.41,0.262-0.657,0.25c-0.247-0.012-0.449-0.114-0.609-0.304
				c-0.16-0.19-0.233-0.415-0.22-0.674l0.022-0.428c-0.915-0.163-1.695-0.489-2.34-0.977c-0.645-0.488-1.094-1.051-1.348-1.688
				c-0.115-0.305-0.167-0.555-0.158-0.749c0.013-0.26,0.118-0.479,0.316-0.658c0.197-0.178,0.432-0.261,0.705-0.247
				c0.22,0.011,0.411,0.086,0.573,0.224c0.162,0.139,0.277,0.314,0.345,0.525c0.121,0.435,0.369,0.802,0.744,1.101
				c0.375,0.299,0.806,0.513,1.294,0.641l0.289-4.161c-1.06-0.405-1.884-0.896-2.472-1.472c-0.588-0.577-0.859-1.312-0.814-2.207
				c0.046-0.908,0.396-1.655,1.05-2.239c0.654-0.584,1.529-0.921,2.626-1.008l0.021-0.408c0.013-0.247,0.112-0.459,0.297-0.639
				c0.184-0.179,0.393-0.263,0.627-0.251c0.247,0.012,0.456,0.118,0.628,0.315c0.172,0.198,0.252,0.419,0.24,0.666l-0.02,0.389
				c1.046,0.157,1.851,0.497,2.416,1.02c0.566,0.523,0.829,1.161,0.791,1.913c-0.014,0.285-0.117,0.518-0.309,0.696
				c-0.191,0.179-0.417,0.262-0.676,0.249c-0.234-0.012-0.428-0.096-0.582-0.254c-0.155-0.157-0.239-0.354-0.253-0.589
				c-0.025-0.274-0.172-0.526-0.439-0.754c-0.269-0.228-0.626-0.399-1.077-0.513l-0.266,3.694c2.31,0.885,3.422,2.17,3.336,3.857
				C368.667,320.381,368.288,321.168,367.579,321.822z M362.503,314.179c0.247,0.266,0.65,0.531,1.209,0.793l0.178-3.132
				c-0.549,0.063-0.97,0.221-1.262,0.472c-0.293,0.252-0.449,0.572-0.469,0.962C362.142,313.612,362.257,313.913,362.503,314.179z
				 M366.344,320.569c0.335-0.321,0.513-0.689,0.535-1.104c0.017-0.337-0.096-0.659-0.341-0.964
				c-0.245-0.305-0.672-0.597-1.282-0.875l-0.202,3.58C365.579,321.102,366.009,320.89,366.344,320.569z"/>
		</g>
		<path style="fill:#E0E0E0;" d="M353.567,306.172c5.577-6.135,15.071-6.588,21.206-1.012c6.135,5.576,6.588,15.071,1.012,21.206
			c4.393-6.192,3.471-14.689-2.146-19.795c-6.135-5.577-15.629-5.124-21.206,1.012C352.782,307.09,353.161,306.619,353.567,306.172z
			"/>
	</g>
	<g>
		<g>
			<g>
				<path style="fill:#E0E0E0;" d="M77.143,373.786c-0.015-0.476-1.617-47.753-9.307-55.231c-7.479-7.271-16.064-0.27-16.425,0.03
					l-0.771-0.924c0.097-0.082,9.785-7.99,18.035,0.03c8.035,7.814,9.607,54.09,9.67,56.056L77.143,373.786z"/>
			</g>
			<g>
				<path style="fill:#E0E0E0;" d="M77.802,383.078c-0.055-0.565-5.256-56.757,15.265-80.308l0.907,0.79
					C73.795,326.72,78.946,382.401,79,382.96L77.802,383.078z"/>
			</g>
			<g>
				<path style="fill:#E0E0E0;" d="M77.044,377.134l-1.201-0.08c0.042-0.637,4.016-63.882-11.036-77.727l0.815-0.886
					C81.095,312.675,77.217,374.508,77.044,377.134z"/>
			</g>
			<g>
				<path style="fill:#E0E0E0;" d="M79.003,377.098l-1.204-0.009c0.015-1.742,0.497-42.719,12.136-49.389
					c2.587-1.484,5.121-1.731,7.531-0.735c7.038,2.911,10.526,15.437,10.671,15.969l-1.161,0.318
					c-0.034-0.125-3.478-12.49-9.971-15.174c-2.047-0.845-4.224-0.622-6.471,0.666C79.489,335.073,79.007,376.679,79.003,377.098z"
					/>
			</g>
			<g>
				<path style="fill:#E0E0E0;" d="M74.47,377.128l-1.201-0.068c0.018-0.323,1.756-32.382-6.896-43.677
					c-2.096-2.736-4.372-4.041-6.776-3.873c-5.669,0.396-10.423,8.692-10.47,8.775l-1.048-0.592
					c0.206-0.365,5.118-8.941,11.432-9.383c2.825-0.201,5.459,1.262,7.817,4.342C76.252,344.301,74.547,375.794,74.47,377.128z"/>
			</g>
			<g>
				<path style="fill:#E0E0E0;" d="M76.367,381.488c-0.236-3.11-5.656-76.31,3.881-89.209l0.967,0.715
					c-9.273,12.542-3.705,87.646-3.648,88.403L76.367,381.488z"/>
			</g>
		</g>
		<g>
			<path style="fill:#EBEBEB;" d="M100.061,334.384c0,0-5.721,2.109-4.02,7.089c1.701,4.98,19.792,13.175,19.792,13.175
				s7.577-6.945,0.619-18.24C109.493,325.113,100.216,330.82,100.061,334.384z"/>
		</g>
		<g>
			<path style="fill:#EBEBEB;" d="M75.189,324.905c0,0,6.092-0.255,6.439,4.996c0.346,5.251-13.199,19.777-13.199,19.777
				s-9.666-3.494-7.59-16.597C62.915,319.977,73.675,321.675,75.189,324.905z"/>
		</g>
		<g>
			<path style="fill:#EBEBEB;" d="M70.031,299.771c0,0,4.062-0.436,3.735-2.91c-0.327-2.474-15.79-8.842-24.913,1.455
				c0,0,5.842,10.034,14.286,10.166C71.583,308.612,70.031,299.771,70.031,299.771z"/>
		</g>
		<g>
			<path style="fill:#EBEBEB;" d="M77.6,293.762c0,0-3.678,1.778-4.709-0.495c-1.031-2.272,8.724-15.855,21.913-11.941
				c0,0,0.35,11.606-6.748,16.183C80.959,302.087,77.6,293.762,77.6,293.762z"/>
		</g>
		<g>
			<path style="fill:#EBEBEB;" d="M58.368,332.382c0,0,2.803-2.263-0.222-3.368c-3.025-1.105-17.87-0.791-18.024,13.914
				c0,0,17.289,2.873,19.429-2.728C61.691,334.598,58.368,332.382,58.368,332.382z"/>
		</g>
		<g>
			<path style="fill:#EBEBEB;" d="M93.624,299.402c0,0-2.803-2.264,0.222-3.368c3.025-1.105,17.869-0.791,18.024,13.914
				c0,0-17.289,2.873-19.429-2.728C90.301,301.618,93.624,299.402,93.624,299.402z"/>
		</g>
		<g>
			<path style="fill:#EBEBEB;" d="M84.484,311.247c0,0-0.247-2.751,1.975-1.673c2.221,1.079,9.96,9.427,1.938,17.35
				c0,0-10.798-7.997-8.852-12.162C81.491,310.597,84.484,311.247,84.484,311.247z"/>
		</g>
		<g>
			<path style="fill:#EBEBEB;" d="M55.862,315.168c0,0,1.676-2.196-0.778-2.468c-2.454-0.272-13.453,2.664-10.891,13.643
				c0,0,13.399-1.007,13.974-5.568C58.74,316.214,55.862,315.168,55.862,315.168z"/>
		</g>
		<polygon style="fill:#F0F0F0;" points="90.267,398.308 63.24,398.308 56.051,365.149 96.773,365.149 		"/>
		<rect x="53.599" y="364.669" style="fill:#E6E6E6;" width="45.52" height="9.535"/>
	</g>
	<g>
		<g>
			<rect x="330.756" y="85.484" style="fill:#EBEBEB;" width="100.572" height="208.076"/>
			<rect x="336.801" y="91.528" style="fill:#FAFAFA;" width="88.483" height="195.987"/>
			<polygon style="fill:#F0F0F0;" points="371.529,287.515 398.124,287.515 423.092,91.528 396.496,91.528 			"/>
			<polygon style="fill:#F0F0F0;" points="384.141,91.528 359.174,287.515 365.621,287.515 390.589,91.528 			"/>
			<polygon style="fill:#E0E0E0;" points="432.602,90.529 329.483,90.529 327.307,85.452 434.778,85.452 			"/>
			<polygon style="fill:#EBEBEB;" points="432.602,93.471 329.483,93.471 327.307,88.393 434.778,88.393 			"/>
			<polygon style="fill:#E6E6E6;" points="432.602,96.404 329.483,96.404 327.307,91.327 434.778,91.327 			"/>
			<polygon style="fill:#E0E0E0;" points="432.602,99.346 329.483,99.346 327.307,94.269 434.778,94.269 			"/>
			<path style="fill:#E0E0E0;" d="M324.752,147.243L324.752,147.243c-0.645,0-1.169-0.523-1.169-1.169c0-0.003,0-0.005,0-0.008
				v-39.491c0.004-0.642,0.526-1.161,1.169-1.16l0,0c0.645,0,1.169,0.523,1.169,1.169v39.491
				C325.921,146.719,325.398,147.243,324.752,147.243L324.752,147.243z"/>
			<rect x="324.317" y="84.501" style="fill:#E0E0E0;" width="0.846" height="23.453"/>
		</g>
		<rect x="323.559" y="79.093" style="fill:#EBEBEB;" width="114.966" height="6.77"/>
	</g>
	<g>
		<g>
			<g>
				<g>
					<g>
						<path style="fill:#E0E0E0;" d="M459.272,337.113H278.526c-3.232,0-5.862-2.63-5.862-5.862V67.978
							c0-3.232,2.63-5.862,5.862-5.862h180.746c3.232,0,5.862,2.629,5.862,5.862v263.273
							C465.134,334.484,462.504,337.113,459.272,337.113z M278.526,62.366c-3.095,0-5.612,2.518-5.612,5.612v263.273
							c0,3.095,2.518,5.612,5.612,5.612h180.746c3.095,0,5.612-2.517,5.612-5.612V67.978c0-3.094-2.518-5.612-5.612-5.612H278.526z"
							/>
					</g>
				</g>
				<g>
					<g>
						<path style="fill:#E0E0E0;" d="M221.314,337.113H40.568c-3.232,0-5.862-2.63-5.862-5.862V67.978
							c0-3.232,2.629-5.862,5.862-5.862h180.747c3.232,0,5.862,2.629,5.862,5.862v263.273
							C227.177,334.484,224.547,337.113,221.314,337.113z M40.568,62.366c-3.094,0-5.612,2.518-5.612,5.612v263.273
							c0,3.095,2.518,5.612,5.612,5.612h180.747c3.095,0,5.612-2.517,5.612-5.612V67.978c0-3.094-2.518-5.612-5.612-5.612H40.568z"
							/>
					</g>
				</g>
			</g>
			<g>
				<g>
					<rect x="0" y="398.183" style="fill:#E0E0E0;" width="500" height="0.25"/>
				</g>
			</g>
		</g>
		<rect x="51.672" y="412.447" style="fill:#E0E0E0;" width="16.06" height="0.25"/>
		<rect x="170.352" y="409.737" style="fill:#E0E0E0;" width="53.53" height="0.25"/>
		<rect x="68.732" y="421.737" style="fill:#E0E0E0;" width="36.25" height="0.25"/>
		<rect x="378.352" y="409.607" style="fill:#E0E0E0;" width="43.19" height="0.25"/>
		<rect x="430.452" y="409.607" style="fill:#E0E0E0;" width="6.33" height="0.25"/>
		<rect x="316.212" y="415.837" style="fill:#E0E0E0;" width="53.89" height="0.25"/>
	</g>
	<g>
		<g>
			<g>
				<path style="fill:#EBEBEB;" d="M185.665,63.512h-26.792c-0.836,0-1.2-1.058-0.54-1.572l12.657-9.861l14.135-11.012
					c0.318-0.247,0.762-0.247,1.08,0l14.135,11.012l12.657,9.861c0.66,0.514,0.296,1.572-0.54,1.572H185.665z"/>
			</g>
			<g>
				<path style="fill:#E0E0E0;" d="M204.607,60.751h-37.885c-0.349,0-0.659-0.222-0.772-0.551c-0.112-0.329-0.004-0.694,0.27-0.908
					l18.942-14.757c0.296-0.228,0.707-0.23,1-0.001l18.945,14.758c0.274,0.213,0.383,0.578,0.27,0.908
					C205.266,60.53,204.956,60.751,204.607,60.751z M168.011,59.493h35.307l-17.653-13.752L168.011,59.493z"/>
			</g>
			<g>
				<rect x="164.152" y="63.511" style="fill:#EBEBEB;" width="5.119" height="21.871"/>
			</g>
			<g>
				<rect x="175.761" y="63.511" style="fill:#EBEBEB;" width="5.119" height="21.871"/>
			</g>
			<g>
				<rect x="191.512" y="63.511" style="fill:#EBEBEB;" width="5.119" height="21.871"/>
			</g>
			<g>
				<rect x="202.864" y="63.511" style="fill:#EBEBEB;" width="5.119" height="21.871"/>
			</g>
			<g>
				<path style="fill:#EBEBEB;" d="M212.97,91.013h-54.61c-0.785,0-1.36-0.741-1.165-1.502l0.828-3.225
					c0.137-0.532,0.616-0.903,1.165-0.903h52.754c0.523,0,0.987,0.339,1.146,0.837l1.028,3.225
					C214.363,90.221,213.784,91.013,212.97,91.013z"/>
			</g>
			<g>
				<path style="fill:#E0E0E0;" d="M185.665,57.879c-2.052,0-3.723-1.67-3.723-3.723c0-2.052,1.67-3.723,3.723-3.723
					c2.053,0,3.723,1.67,3.723,3.723C189.387,56.208,187.717,57.879,185.665,57.879z M185.665,51.691
					c-1.359,0-2.464,1.105-2.464,2.464c0,1.359,1.105,2.465,2.464,2.465c1.359,0,2.464-1.105,2.464-2.465
					C188.129,52.797,187.024,51.691,185.665,51.691z"/>
			</g>
			<g>
				<path style="fill:#EBEBEB;" d="M211.32,66.689h-51.311c-0.342,0-0.619-0.277-0.619-0.619V64.13c0-0.342,0.277-0.619,0.619-0.619
					h51.311c0.342,0,0.619,0.277,0.619,0.619v1.939C211.939,66.412,211.662,66.689,211.32,66.689z"/>
			</g>
			<g>
				<path style="fill:#E0E0E0;" d="M210.778,64.31h-50.227c-0.348,0-0.629-0.281-0.629-0.629s0.281-0.629,0.629-0.629h50.227
					c0.348,0,0.629,0.281,0.629,0.629S211.126,64.31,210.778,64.31z"/>
			</g>
			<g>
				<path style="fill:#E0E0E0;" d="M210.778,88.927h-50.227c-0.348,0-0.629-0.282-0.629-0.629s0.281-0.629,0.629-0.629h50.227
					c0.348,0,0.629,0.281,0.629,0.629S211.126,88.927,210.778,88.927z"/>
			</g>
		</g>
	</g>
	<g>
		<rect x="55.184" y="85.446" style="fill:#E6E6E6;" width="73.077" height="115.875"/>
		<rect x="55.184" y="85.346" style="fill:#F0F0F0;" width="70.147" height="112.579"/>
		<rect x="65.846" y="95.345" style="fill:#FFFFFF;" width="48.79" height="92.58"/>
		<rect x="80.84" y="114.837" style="fill:#F0F0F0;" width="19.466" height="54.099"/>
	</g>
</g>
<g id="Background_simple" style="display:none;">
	<g style="display:inline;">
		<path style="fill:#407BFF;" d="M430.309,175.646c-4.729-16.497-14.797-32.406-30.59-46.515
			c-18.613-16.629-47.61-33.621-85.538-28.602c-70.02,9.265-71.296,53.711-118.376,44.837
			c-53.329-10.052-115.883-3.311-133.279,41.794c-33.04,85.671,160.285,189.234,266.515,160.147
			C395.176,329.199,455.418,263.244,430.309,175.646z"/>
		<path style="opacity:0.9;fill:#FFFFFF;" d="M430.309,175.646c-4.729-16.497-14.797-32.406-30.59-46.515
			c-18.613-16.629-47.61-33.621-85.538-28.602c-70.02,9.265-71.296,53.711-118.376,44.837
			c-53.329-10.052-115.883-3.311-133.279,41.794c-33.04,85.671,160.285,189.234,266.515,160.147
			C395.176,329.199,455.418,263.244,430.309,175.646z"/>
	</g>
</g>
<g id="Shadow">
	<g>
		<g>
			<ellipse style="fill:#F5F5F5;" cx="255.332" cy="448.342" rx="208.875" ry="7.971"/>
		</g>
	</g>
</g>
<g id="Device">
	<g>
		<g id="freepik--device-1--inject-2">
			<path style="fill:#263238;" d="M295.434,365.469h-99.727c-11.215-0.008-20.305-9.098-20.933-20.178V106.924
				c0.628-11.35,9.718-20.44,20.933-20.447h99.727c11.215,0.008,20.305,9.097,20.313,20.313v238.367
				C315.739,356.371,306.649,365.461,295.434,365.469z"/>
			<path style="fill:#407BFF;" d="M295.434,91.144h-25.919c-1.684-0.009-3.113,1.232-3.342,2.9l-0.111,0.815
				c-0.545,4.104-4.035,7.175-8.175,7.194h-24.635c-4.14-0.019-7.63-3.091-8.175-7.194l-0.097-0.815
				c-0.222-1.684-1.657-2.942-3.355-2.941h-25.919c-8.641-0.031-15.67,6.949-15.701,15.59c0,0.032,0,0.064,0,0.097v238.367
				c0,8.641,7.005,15.645,15.645,15.645h99.727c8.643,0,15.651-7.002,15.659-15.645V106.789
				C311.03,98.168,304.055,91.174,295.434,91.144z"/>
			<path style="opacity:0.7;fill:#FFFFFF;enable-background:new    ;" d="M295.434,91.144h-25.919
				c-1.684-0.009-3.113,1.232-3.342,2.9l-0.111,0.815c-0.545,4.104-4.035,7.175-8.175,7.194h-24.635
				c-4.14-0.019-7.63-3.091-8.175-7.194l-0.097-0.815c-0.222-1.684-1.657-2.942-3.355-2.941h-25.919
				c-8.641-0.031-15.67,6.949-15.701,15.59c0,0.032,0,0.064,0,0.097v238.367c0,8.641,7.005,15.645,15.645,15.645h99.727
				c8.643,0,15.651-7.002,15.659-15.645V106.789C311.03,98.168,304.055,91.174,295.434,91.144z"/>
			<g style="opacity:0.7;">
				<path d="M239.536,93.781c0.008,1.098-0.876,1.995-1.975,2.002c-1.098,0.008-1.995-0.877-2.002-1.975
					c-0.008-1.098,0.876-1.995,1.975-2.002c0.009,0,0.018,0,0.027,0C238.652,91.807,239.536,92.691,239.536,93.781z"/>
				<path d="M253.579,91.807h-6.794c-1.091,0-1.975,0.884-1.975,1.975c0,1.091,0.884,1.975,1.975,1.975h6.794
					c1.09,0,1.975-0.884,1.975-1.975C255.554,92.691,254.67,91.807,253.579,91.807z"/>
			</g>
			<rect x="190.915" y="99.954" style="fill:#407BFF;" width="2.099" height="2.099"/>
			<polygon style="fill:#407BFF;" points="195.099,99.954 195.099,102.053 197.198,102.053 197.198,99.954 197.198,97.855 
				195.099,97.855 			"/>
			<polygon style="fill:#407BFF;" points="199.297,95.77 199.297,97.855 199.297,99.954 199.297,102.053 201.396,102.053 
				201.396,99.954 201.396,97.855 201.396,95.77 			"/>
			<path style="fill:#407BFF;" d="M289.482,95.908v1.533h-1.022v3.079h1.022v1.533h9.279v-6.145H289.482z M293.625,100.52h-3.148
				v-3.079h3.079L293.625,100.52z"/>
		</g>
		<g>
			<path style="fill:#407BFF;" d="M284.705,263.208h-78.269c-0.92,0-1.665-0.745-1.665-1.665v-48.967
				c0-0.92,0.745-1.665,1.665-1.665h78.269c0.92,0,1.665,0.745,1.665,1.665v48.967C286.37,262.462,285.624,263.208,284.705,263.208z
				"/>
			<path style="opacity:0.6;fill:#FFFFFF;" d="M230.038,235.312h-12.101c-1.137,0-2.059-0.922-2.059-2.059v-9.885
				c0-1.137,0.922-2.059,2.059-2.059h12.101c1.137,0,2.059,0.922,2.059,2.059v9.885
				C232.097,234.391,231.175,235.312,230.038,235.312z"/>
			<g style="opacity:0.3;">
				<path d="M215.878,245.975c3.515,0,7.031,0,10.546,0c1.195,0,1.197-1.857,0-1.857c-3.515,0-7.031,0-10.546,0
					C214.683,244.117,214.681,245.975,215.878,245.975L215.878,245.975z"/>
			</g>
			<g style="opacity:0.3;">
				<path d="M232.115,245.975c3.515,0,7.031,0,10.546,0c1.195,0,1.197-1.857,0-1.857c-3.515,0-7.031,0-10.546,0
					C230.92,244.117,230.918,245.975,232.115,245.975L232.115,245.975z"/>
			</g>
			<g style="opacity:0.3;">
				<path d="M248.352,245.975c3.515,0,7.031,0,10.546,0c1.195,0,1.197-1.857,0-1.857c-3.515,0-7.031,0-10.546,0
					C247.156,244.117,247.154,245.975,248.352,245.975L248.352,245.975z"/>
			</g>
			<g style="opacity:0.3;">
				<path d="M264.588,245.975c3.515,0,7.031,0,10.546,0c1.195,0,1.197-1.857,0-1.857c-3.515,0-7.031,0-10.546,0
					C263.393,244.117,263.391,245.975,264.588,245.975L264.588,245.975z"/>
			</g>
		</g>
		<g>
			<g>
				<path style="fill:#407BFF;" d="M268.935,167.487h-48.248c-1.391,0-2.519-1.128-2.519-2.519V120.92
					c0-1.391,1.128-2.519,2.519-2.519h48.248c1.391,0,2.519,1.128,2.519,2.519v44.048
					C271.454,166.359,270.327,167.487,268.935,167.487z"/>
			</g>
			<g>
				<g>
					<path style="fill:#407BFF;" d="M244.811,139.479h-18.585c-0.58,0-0.832-0.734-0.375-1.09l8.78-6.84l9.805-7.639
						c0.22-0.172,0.529-0.172,0.749,0l9.805,7.639l8.78,6.84c0.458,0.357,0.206,1.09-0.375,1.09H244.811z"/>
				</g>
				<g style="opacity:0.7;">
					<path style="fill:#FFFFFF;" d="M244.811,139.479h-18.585c-0.58,0-0.832-0.734-0.375-1.09l8.78-6.84l9.805-7.639
						c0.22-0.172,0.529-0.172,0.749,0l9.805,7.639l8.78,6.84c0.458,0.357,0.206,1.09-0.375,1.09H244.811z"/>
				</g>
				<g>
					<path style="fill:#407BFF;" d="M257.951,137.565h-26.28c-0.242,0-0.457-0.154-0.535-0.382c-0.078-0.229-0.002-0.481,0.188-0.63
						l13.14-10.237c0.205-0.158,0.49-0.16,0.694-0.001l13.141,10.237c0.19,0.148,0.266,0.401,0.188,0.63
						S258.193,137.565,257.951,137.565z M232.565,136.692h24.491l-12.245-9.54L232.565,136.692z"/>
				</g>
				<g>
					<rect x="229.888" y="139.479" style="fill:#407BFF;" width="3.551" height="15.171"/>
				</g>
				<g style="opacity:0.7;">
					<rect x="229.888" y="139.479" style="fill:#FFFFFF;" width="3.551" height="15.171"/>
				</g>
				<g>
					<rect x="237.941" y="139.479" style="fill:#407BFF;" width="3.551" height="15.171"/>
				</g>
				<g style="opacity:0.7;">
					<rect x="237.941" y="139.479" style="fill:#FFFFFF;" width="3.551" height="15.171"/>
				</g>
				<g>
					<rect x="248.867" y="139.479" style="fill:#407BFF;" width="3.551" height="15.171"/>
				</g>
				<g style="opacity:0.7;">
					<rect x="248.867" y="139.479" style="fill:#FFFFFF;" width="3.551" height="15.171"/>
				</g>
				<g>
					<rect x="256.784" y="139.479" style="fill:#407BFF;" width="3.551" height="15.171"/>
				</g>
				<g style="opacity:0.7;">
					<rect x="256.784" y="139.479" style="fill:#FFFFFF;" width="3.551" height="15.171"/>
				</g>
				<g>
					<path style="fill:#407BFF;" d="M263.751,158.556H225.87c-0.545,0-0.943-0.514-0.808-1.042l0.575-2.237
						c0.095-0.369,0.427-0.627,0.808-0.627h36.593c0.363,0,0.684,0.235,0.795,0.581l0.713,2.237
						C264.718,158.007,264.316,158.556,263.751,158.556z"/>
				</g>
				<g style="opacity:0.7;">
					<path style="fill:#FFFFFF;" d="M263.751,158.556H225.87c-0.545,0-0.943-0.514-0.808-1.042l0.575-2.237
						c0.095-0.369,0.427-0.627,0.808-0.627h36.593c0.363,0,0.684,0.235,0.795,0.581l0.713,2.237
						C264.718,158.007,264.316,158.556,263.751,158.556z"/>
				</g>
				<g>
					<path style="fill:#407BFF;" d="M244.811,135.572c-1.424,0-2.582-1.158-2.582-2.583c0-1.424,1.159-2.582,2.582-2.582
						c1.424,0,2.582,1.159,2.582,2.582C247.393,134.413,246.235,135.572,244.811,135.572z M244.811,131.28
						c-0.943,0-1.709,0.767-1.709,1.709c0,0.943,0.766,1.71,1.709,1.71c0.943,0,1.709-0.767,1.709-1.71
						C246.52,132.047,245.754,131.28,244.811,131.28z"/>
				</g>
				<g>
					<path style="fill:#407BFF;" d="M262.418,141.683h-35.214c-0.342,0-0.619-0.277-0.619-0.619v-0.966
						c0-0.342,0.277-0.619,0.619-0.619h35.214c0.342,0,0.619,0.277,0.619,0.619v0.966
						C263.037,141.406,262.76,141.683,262.418,141.683z"/>
				</g>
				<g style="opacity:0.7;">
					<path style="fill:#FFFFFF;" d="M262.418,141.683h-35.214c-0.342,0-0.619-0.277-0.619-0.619v-0.966
						c0-0.342,0.277-0.619,0.619-0.619h35.214c0.342,0,0.619,0.277,0.619,0.619v0.966
						C263.037,141.406,262.76,141.683,262.418,141.683z"/>
				</g>
				<g>
					<path style="fill:#407BFF;" d="M262.231,140.033h-34.841c-0.241,0-0.437-0.195-0.437-0.436c0-0.241,0.195-0.436,0.437-0.436
						h34.841c0.241,0,0.436,0.195,0.436,0.436C262.668,139.838,262.473,140.033,262.231,140.033z"/>
				</g>
				<g>
					<path style="fill:#407BFF;" d="M262.231,157.109h-34.841c-0.241,0-0.437-0.195-0.437-0.436c0-0.241,0.195-0.437,0.437-0.437
						h34.841c0.241,0,0.436,0.195,0.436,0.437C262.668,156.914,262.473,157.109,262.231,157.109z"/>
				</g>
			</g>
		</g>
		<rect x="214.372" y="176.112" style="fill:#407BFF;" width="62.396" height="2.886"/>
		<g>
			<rect x="200.233" y="191.228" style="fill:#407BFF;" width="31.29" height="2.886"/>
			<rect x="237.923" y="191.228" style="fill:#407BFF;" width="22.823" height="2.886"/>
			<rect x="267.226" y="191.228" style="fill:#407BFF;" width="22.823" height="2.886"/>
			<rect x="200.233" y="191.228" style="opacity:0.3;enable-background:new    ;" width="31.29" height="2.886"/>
			<rect x="237.923" y="191.228" style="opacity:0.3;enable-background:new    ;" width="22.823" height="2.886"/>
			<rect x="267.226" y="191.228" style="opacity:0.3;enable-background:new    ;" width="22.823" height="2.886"/>
		</g>
		<g>
			<circle style="fill:#407BFF;" cx="211.708" cy="285.39" r="4.487"/>
			<rect x="226.019" y="283.179" style="fill:#407BFF;" width="58.627" height="2.726"/>
			<circle style="fill:#407BFF;" cx="210.957" cy="303.283" r="4.487"/>
			<rect x="226.019" y="301.125" style="fill:#407BFF;" width="58.627" height="2.726"/>
			<circle style="fill:#407BFF;" cx="211.708" cy="320.433" r="4.487"/>
			<rect x="226.019" y="319.07" style="fill:#407BFF;" width="58.627" height="2.726"/>
			<rect x="226.019" y="283.179" style="opacity:0.3;enable-background:new    ;" width="58.627" height="2.726"/>
			<rect x="226.019" y="301.125" style="opacity:0.3;enable-background:new    ;" width="58.627" height="2.726"/>
			<rect x="226.019" y="319.07" style="opacity:0.3;enable-background:new    ;" width="58.627" height="2.726"/>
		</g>
		<path style="opacity:0.2;fill:#FFFFFF;" d="M178.975,300.234c0-2.403,8.693-33.639,27.818-66.477s42.77-10.412,65.719-46.454
			s25.531-96.201,25.531-96.201h-26.724c0,0-5.066,67.368-29.406,76.178s-62.937,62.472-62.937,62.472V300.234z"/>
		<path style="opacity:0.2;fill:#FFFFFF;" d="M195.805,361.208h15.647c0,0,86.72-123.7,99.586-145.942v-23.979
			C299.215,219.09,195.805,361.208,195.805,361.208z"/>
	</g>
</g>
<g id="Coins">
	<g>
		<g id="freepik--Bitcoin--inject-488_00000147900322469383539690000018386563127939295920_">
			<path style="fill:#407BFF;" d="M305.923,184.906c7.967,15.981,26.588,22.872,41.592,15.392l5.339-2.662l-28.852-57.871
				l-5.339,2.662C303.66,149.907,297.956,168.926,305.923,184.906z"/>
			<path style="opacity:0.3;enable-background:new    ;" d="M305.923,184.906c7.967,15.981,26.588,22.872,41.592,15.392l5.339-2.662
				l-28.852-57.871l-5.339,2.662C303.66,149.907,297.956,168.926,305.923,184.906z"/>
			
				<ellipse transform="matrix(0.8971 -0.4418 0.4418 0.8971 -39.7125 166.895)" style="fill:#407BFF;" cx="338.428" cy="168.701" rx="32.332" ry="32.332"/>
			<path style="fill:#407BFF;" d="M315.261,180.251c6.379,12.795,21.922,17.995,34.717,11.617
				c12.795-6.379,17.996-21.922,11.617-34.717c-6.379-12.795-21.922-17.996-34.717-11.617
				C314.083,151.913,308.883,167.456,315.261,180.251z"/>
			<path style="opacity:0.3;fill:#FFFFFF;" d="M315.261,180.251c6.379,12.795,21.922,17.995,34.717,11.617
				c12.795-6.379,17.996-21.922,11.617-34.717c-6.379-12.795-21.922-17.996-34.717-11.617
				C314.083,151.913,308.883,167.456,315.261,180.251z"/>
		</g>
		<g>
			<path style="fill:#407BFF;" d="M346.581,176.083c-0.77,1.508-1.962,2.694-3.577,3.559l0.256,0.816
				c0.129,0.413,0.091,0.825-0.115,1.236c-0.206,0.411-0.515,0.681-0.928,0.811s-0.808,0.086-1.187-0.129
				c-0.379-0.216-0.636-0.541-0.772-0.975l-0.225-0.717c-1.605,0.289-3.087,0.228-4.445-0.182c-1.359-0.409-2.441-1.061-3.246-1.955
				c-0.375-0.431-0.613-0.81-0.716-1.136c-0.137-0.435-0.097-0.859,0.12-1.274c0.216-0.413,0.553-0.692,1.01-0.836
				c0.369-0.116,0.729-0.109,1.08,0.019c0.351,0.129,0.647,0.347,0.887,0.653c0.464,0.642,1.096,1.095,1.895,1.358
				c0.799,0.264,1.638,0.353,2.519,0.267l-2.06-7.02c-1.99-0.02-3.644-0.326-4.963-0.915c-1.319-0.59-2.213-1.634-2.684-3.135
				c-0.478-1.522-0.357-2.963,0.363-4.323c0.719-1.36,1.954-2.446,3.705-3.259l-0.215-0.684c-0.13-0.413-0.096-0.823,0.099-1.231
				c0.193-0.407,0.486-0.672,0.878-0.795c0.413-0.13,0.821-0.084,1.225,0.135c0.404,0.22,0.671,0.536,0.8,0.949l0.205,0.652
				c1.816-0.378,3.348-0.31,4.596,0.206c1.249,0.516,2.072,1.405,2.467,2.665c0.15,0.479,0.122,0.924-0.084,1.334
				c-0.206,0.411-0.526,0.685-0.961,0.821c-0.391,0.123-0.762,0.102-1.112-0.063c-0.35-0.165-0.608-0.437-0.775-0.814
				c-0.208-0.436-0.603-0.76-1.182-0.972c-0.581-0.212-1.274-0.275-2.084-0.189l1.814,6.238c4.339,0.048,6.951,1.485,7.838,4.311
				C347.492,173.051,347.349,174.577,346.581,176.083z M333.574,166.604c0.568,0.288,1.392,0.477,2.472,0.568l-1.616-5.261
				c-0.865,0.439-1.461,0.954-1.788,1.546c-0.328,0.593-0.39,1.215-0.185,1.868C332.634,165.891,333.006,166.317,333.574,166.604z
				 M343.786,174.774c0.355-0.732,0.425-1.446,0.206-2.142c-0.177-0.565-0.56-1.025-1.148-1.377
				c-0.589-0.353-1.469-0.572-2.642-0.658l1.85,6.012C342.853,176.118,343.431,175.507,343.786,174.774z"/>
		</g>
		<path style="fill:#407BFF;" d="M313.994,158.878c5.435-13.491,20.777-20.021,34.267-14.586
			c13.49,5.435,20.021,20.777,14.586,34.267c3.453-12.862-3.24-26.278-15.593-31.255c-13.49-5.435-28.832,1.096-34.267,14.586
			C313.262,160.867,313.598,159.861,313.994,158.878z"/>
		<path style="opacity:0.3;enable-background:new    ;" d="M313.994,158.878c5.435-13.491,20.777-20.021,34.267-14.586
			c13.49,5.435,20.021,20.777,14.586,34.267c3.453-12.862-3.24-26.278-15.593-31.255c-13.49-5.435-28.832,1.096-34.267,14.586
			C313.262,160.867,313.598,159.861,313.994,158.878z"/>
	</g>
	<g>
		<g id="freepik--Bitcoin--inject-488_00000091701533189192552310000009873050117484460449_">
			<path style="fill:#407BFF;" d="M91.139,270.669c4.294,8.613,14.331,12.328,22.417,8.296l2.878-1.435l-15.551-31.192l-2.878,1.435
				C89.919,251.805,86.845,262.056,91.139,270.669z"/>
			<path style="opacity:0.3;enable-background:new    ;" d="M91.139,270.669c4.294,8.613,14.331,12.328,22.417,8.296l2.878-1.435
				l-15.551-31.192l-2.878,1.435C89.919,251.805,86.845,262.056,91.139,270.669z"/>
			<path style="fill:#407BFF;" d="M125.185,267.464c-3.054,9.127-12.929,14.05-22.056,10.996
				c-9.127-3.054-14.05-12.929-10.996-22.056c3.054-9.127,12.929-14.05,22.056-10.996
				C123.316,248.462,128.239,258.337,125.185,267.464z"/>
			<path style="fill:#407BFF;" d="M96.172,268.16c3.438,6.896,11.816,9.699,18.712,6.261c6.896-3.438,9.699-11.816,6.261-18.712
				c-3.438-6.896-11.816-9.7-18.712-6.261C95.537,252.886,92.734,261.264,96.172,268.16z"/>
			<path style="opacity:0.3;fill:#FFFFFF;" d="M96.172,268.16c3.438,6.896,11.816,9.699,18.712,6.261
				c6.896-3.438,9.699-11.816,6.261-18.712c-3.438-6.896-11.816-9.7-18.712-6.261C95.537,252.886,92.734,261.264,96.172,268.16z"/>
		</g>
		<g>
			<path style="fill:#407BFF;" d="M113.053,265.913c-0.415,0.813-1.057,1.452-1.928,1.918l0.138,0.44
				c0.07,0.222,0.049,0.445-0.062,0.666c-0.111,0.221-0.277,0.367-0.5,0.437c-0.223,0.07-0.436,0.046-0.64-0.07
				c-0.204-0.117-0.343-0.292-0.416-0.526l-0.121-0.387c-0.865,0.156-1.664,0.123-2.396-0.098c-0.732-0.22-1.315-0.572-1.749-1.054
				c-0.202-0.232-0.331-0.437-0.386-0.613c-0.074-0.235-0.052-0.463,0.064-0.687c0.116-0.223,0.298-0.373,0.544-0.45
				c0.199-0.062,0.393-0.059,0.582,0.01c0.189,0.069,0.349,0.187,0.478,0.352c0.25,0.346,0.591,0.59,1.021,0.732
				c0.431,0.142,0.883,0.19,1.358,0.144l-1.11-3.784c-1.073-0.011-1.964-0.176-2.675-0.493c-0.711-0.318-1.193-0.881-1.447-1.69
				c-0.257-0.82-0.192-1.597,0.196-2.33c0.388-0.733,1.053-1.319,1.997-1.757l-0.116-0.369c-0.07-0.223-0.052-0.444,0.053-0.664
				c0.104-0.219,0.262-0.362,0.473-0.428c0.223-0.07,0.443-0.045,0.66,0.073c0.218,0.119,0.361,0.289,0.431,0.512l0.11,0.351
				c0.979-0.204,1.805-0.167,2.477,0.111c0.673,0.278,1.117,0.757,1.33,1.436c0.081,0.258,0.066,0.498-0.045,0.719
				c-0.111,0.222-0.283,0.369-0.518,0.443c-0.211,0.066-0.411,0.055-0.6-0.034c-0.189-0.089-0.328-0.235-0.418-0.439
				c-0.112-0.235-0.325-0.41-0.637-0.524c-0.313-0.114-0.687-0.148-1.123-0.102l0.978,3.362c2.339,0.026,3.747,0.801,4.225,2.324
				C113.544,264.279,113.467,265.101,113.053,265.913z M106.043,260.804c0.306,0.155,0.751,0.257,1.333,0.306l-0.871-2.836
				c-0.466,0.237-0.788,0.514-0.964,0.833c-0.177,0.32-0.21,0.655-0.1,1.007C105.536,260.42,105.736,260.65,106.043,260.804z
				 M111.547,265.208c0.192-0.395,0.229-0.779,0.111-1.155c-0.096-0.305-0.302-0.552-0.619-0.742
				c-0.317-0.19-0.792-0.308-1.424-0.355l0.997,3.24C111.044,265.932,111.355,265.603,111.547,265.208z"/>
		</g>
		<path style="fill:#407BFF;" d="M95.489,256.64c2.929-7.271,11.199-10.791,18.47-7.862c7.271,2.929,10.791,11.199,7.862,18.47
			c1.861-6.933-1.746-14.164-8.405-16.846c-7.271-2.929-15.54,0.59-18.47,7.862C95.094,257.712,95.276,257.169,95.489,256.64z"/>
		<path style="opacity:0.3;enable-background:new    ;" d="M95.489,256.64c2.929-7.271,11.199-10.791,18.47-7.862
			c7.271,2.929,10.791,11.199,7.862,18.47c1.861-6.933-1.746-14.164-8.405-16.846c-7.271-2.929-15.54,0.59-18.47,7.862
			C95.094,257.712,95.276,257.169,95.489,256.64z"/>
	</g>
</g>
<g id="Piggy_Bank">
	<g>
		<path style="fill:#407BFF;" d="M296.595,379.408c0,0,9.448-31.314,45.082-32.664c35.634-1.35,63.978,8.099,65.058,39.683
			s-17.277,37.793-17.277,37.793l-0.54,16.467h-18.087v-9.718c0,0-23.756,1.08-32.664-1.62v14.037h-19.436l-0.27-18.897
			c0,0-14.307-7.019-18.897-19.167h-9.988c-3.427-10.059-4.595-19.919-1.558-26.112L296.595,379.408z"/>
		<path style="fill:#407BFF;" d="M317.132,360.988c-0.677-5.666-1.355-11.332-2.032-16.998c-0.069-0.574-0.13-1.191,0.146-1.699
			c0.477-0.878,1.684-0.996,2.675-0.874c4.222,0.521,7.868,3.388,10.313,6.868c2.445,3.481,3.868,7.559,5.261,11.578"/>
		<path style="fill:#407BFF;" d="M314.845,355.137c-2.445-3.481-6.091-6.348-10.312-6.868c-0.991-0.122-2.198-0.004-2.675,0.874
			c-0.276,0.508-0.215,1.125-0.146,1.699c0.677,5.666,1.355,11.332,2.032,16.998l16.363-1.124
			C318.713,362.695,317.29,358.617,314.845,355.137z"/>
		<g>
			<path style="fill:#263238;" d="M346.786,354.642c7.208-0.731,14.458-0.145,21.448,1.762c1.246,0.34,1.778-1.593,0.533-1.933
				c-7.15-1.95-14.607-2.582-21.981-1.833C345.514,352.767,345.501,354.773,346.786,354.642L346.786,354.642z"/>
		</g>
		<g>
			<path style="fill:#263238;" d="M313.08,376.067c0.116,0.871,0.168,1.748,0.148,2.626c-0.01,0.43-0.036,0.86-0.078,1.288
				c-0.01,0.103-0.022,0.205-0.034,0.308c-0.025,0.232,0.013-0.068-0.018,0.143c-0.035,0.238-0.075,0.476-0.119,0.713
				c-0.095,0.514,0.141,1.106,0.7,1.233c0.492,0.112,1.131-0.149,1.233-0.7c0.344-1.855,0.421-3.74,0.172-5.611
				c-0.037-0.277-0.087-0.503-0.293-0.709c-0.174-0.174-0.459-0.305-0.709-0.293C313.599,375.086,313.006,375.51,313.08,376.067
				L313.08,376.067z"/>
		</g>
		<g>
			<path style="fill:#407BFF;" d="M407.203,386.036c1.766-2.94,6.017-2.758,8.35-0.651c2.518,2.273,4.137,7.185,2.631,10.399
				c-0.815,1.74-3.086,2.709-4.416,0.938c-1.279-1.703-0.589-4.071,0.07-5.883c1.195-3.289,3.445-6.494,6.743-7.92
				c3.293-1.424,7.698-0.617,9.618,2.595c0.661,1.106,2.395,0.099,1.731-1.012c-2.274-3.806-7.298-5.13-11.381-3.715
				c-4.69,1.626-7.783,6.217-9.066,10.831c-0.654,2.351-0.676,5.117,1.219,6.923c1.68,1.6,4.134,1.429,5.852-0.011
				c3.814-3.199,2.082-10.161-0.608-13.514c-3.078-3.836-9.685-4.634-12.474,0.008C404.806,386.133,406.539,387.142,407.203,386.036
				L407.203,386.036z"/>
		</g>
		<g>
			<path style="fill:#263238;" d="M287.967,380.634c3.599,7.028,4.546,15.204,2.671,22.87c-0.306,1.253,1.626,1.788,1.933,0.533
				c2.007-8.206,0.977-16.898-2.873-24.415C289.11,378.474,287.379,379.487,287.967,380.634L287.967,380.634z"/>
		</g>
		<g>
			<g>
				<g>
					<path style="fill:#407BFF;" d="M368.276,345.707c10.173,0.788,20.008,4.624,28.015,10.953c0.749,0.592,1.818-0.462,1.061-1.061
						c-8.344-6.595-18.469-10.572-29.076-11.393C367.313,344.132,367.318,345.632,368.276,345.707L368.276,345.707z"/>
				</g>
			</g>
			<g>
				<g>
					<path style="fill:#407BFF;" d="M399.183,360.197c0.878,0.941,1.755,1.883,2.632,2.824c0.268,0.288,0.793,0.291,1.061,0
						c0.283-0.308,0.286-0.754,0-1.061c-0.878-0.941-1.755-1.883-2.632-2.824c-0.268-0.288-0.793-0.291-1.061,0
						C398.9,359.445,398.896,359.891,399.183,360.197L399.183,360.197z"/>
				</g>
			</g>
		</g>
	</g>
</g>
<g id="Speech_Bubble">
	<g>
		<g>
			<g>
				<g>
					<path style="fill:#407BFF;" d="M115.703,106.374c-10.417-5.033-22.942-0.669-27.975,9.748
						c-5.033,10.417-0.669,22.942,9.749,27.976c8.042,3.885,17.326,2.152,23.464-3.625l6.268,0.545l-1.924-6.363
						c0.052-0.104,0.116-0.199,0.167-0.305C130.485,123.932,126.12,111.407,115.703,106.374z"/>
				</g>
				<path style="fill:none;stroke:#407BFF;stroke-linecap:round;stroke-linejoin:round;stroke-miterlimit:10;" d="M105.314,101.571
					c6.743-0.957,13.895,1.737,18.33,6.906"/>
				<path style="fill:none;stroke:#407BFF;stroke-linecap:round;stroke-linejoin:round;stroke-miterlimit:10;" d="M125.594,110.919
					c0.733,0.736,1.312,1.625,1.688,2.593"/>
			</g>
		</g>
		<g>
			<polygon style="fill:#FFFFFF;" points="106.616,135.672 95.968,127.743 98.735,124.027 105.875,129.344 115.686,117.64 
				119.236,120.616 			"/>
		</g>
	</g>
</g>
<g id="Character">
	<g>
		<g>
			<g>
				<polygon style="fill:#F2B269;" points="151.227,402.311 139.88,404.124 149.167,430.437 160.528,428.623 				"/>
			</g>
			<g>
				<path style="fill:#263238;" d="M144.996,426.278l4.015-1.594c0.908-0.361,1.931-0.235,2.759,0.285
					c3.57,2.243,4.836,0.357,6.174-3.615c1.527-0.822,2.687,0.844,3.014,1.286l7.335,9.726c0.622,0.808,0.472,1.968-0.336,2.591
					c-0.144,0.111-0.303,0.2-0.473,0.264c-4.876,1.935-7.183,2.851-13.251,5.26l-18.559,7.367c-5.059,2.008-8.132-2.674-6.235-3.973
					c8.549-5.791,14.09-11.182,15.905-15.058C145.692,428.126,144.999,427.988,144.996,426.278z"/>
			</g>
			<g>
				<path style="fill:#407BFF;" d="M140.486,432.375c1.255-0.533,2.452-1.197,3.569-1.978c0.099-0.087,0.109-0.239,0.021-0.338
					c-0.047-0.054-0.116-0.083-0.188-0.081c-0.673-0.051-6.624-0.405-7.529,0.985c-0.175,0.247-0.193,0.573-0.047,0.838
					c0.213,0.518,0.659,0.904,1.202,1.04C138.53,433.006,139.571,432.842,140.486,432.375z M143.149,430.407
					c-1.372,0.863-3.979,2.323-5.457,1.923c-0.388-0.115-0.708-0.392-0.878-0.759c-0.07-0.109-0.066-0.25,0.012-0.354
					C137.328,430.457,140.701,430.317,143.149,430.407z"/>
			</g>
			<g>
				<path style="fill:#407BFF;" d="M144.008,430.431c0.057-0.005,0.112-0.027,0.157-0.062c0.044-0.085,0.033-0.188-0.028-0.262
					c-0.083-0.21-3.224-4.683-5.852-3.276c-0.645,0.362-0.712,0.768-0.628,1.054c0.35,1.378,4.492,2.602,6.249,2.633
					L144.008,430.431z M138.717,427.114c1.743-0.692,3.897,1.791,4.695,2.809c-1.982-0.215-5.092-1.362-5.265-2.219
					c-0.026-0.065-0.099-0.249,0.391-0.504L138.717,427.114z"/>
			</g>
			<g>
				<path style="fill:#407BFF;" d="M147.72,431.671c-0.072,0-0.142-0.022-0.204-0.066c-1.134-0.831-2.626-1.129-3.996-0.786
					c-0.185,0.045-0.372-0.069-0.418-0.253c-0.044-0.185,0.067-0.372,0.254-0.418c1.563-0.387,3.269-0.048,4.567,0.9
					c0.154,0.113,0.188,0.329,0.076,0.483C147.932,431.622,147.826,431.671,147.72,431.671z"/>
			</g>
			<g>
				<path style="fill:#407BFF;" d="M145.97,434.539c-0.071,0-0.142-0.022-0.204-0.066c-1.134-0.831-2.627-1.129-3.996-0.786
					c-0.186,0.043-0.372-0.069-0.418-0.254c-0.044-0.185,0.068-0.372,0.254-0.418c1.563-0.388,3.27-0.047,4.567,0.9
					c0.154,0.113,0.187,0.329,0.076,0.483C146.181,434.49,146.076,434.539,145.97,434.539z"/>
			</g>
			<g>
				<path style="fill:#407BFF;" d="M143.492,437.351c-0.071,0-0.142-0.022-0.204-0.066c-1.136-0.831-2.626-1.127-3.996-0.786
					c-0.185,0.044-0.372-0.069-0.418-0.253c-0.044-0.185,0.067-0.372,0.254-0.418c1.564-0.387,3.27-0.049,4.567,0.899
					c0.154,0.113,0.188,0.329,0.076,0.483C143.704,437.302,143.599,437.351,143.492,437.351z"/>
			</g>
			<path style="opacity:0.3;" d="M168.293,432.367l-7.335-9.727c-0.326-0.441-1.481-2.096-3.001-1.291l-6.73-19.039l-11.346,1.814
				l7.486,21.213l-2.371,0.941c0.003,1.71,0.696,1.848,0.349,2.539c-0.178,0.38-0.402,0.779-0.651,1.187
				c-0.198-0.001-0.392,0.025-0.589,0.045c-0.316-0.522-3.299-4.567-5.818-3.218c-0.645,0.362-0.712,0.768-0.628,1.054
				c0.201,0.791,1.652,1.53,3.184,2.023c-1.865,0.043-3.972,0.273-4.481,1.055c-0.175,0.248-0.193,0.573-0.047,0.838
				c0.213,0.518,0.659,0.904,1.202,1.04c1.015,0.165,2.056,0.002,2.971-0.466c1.021-0.434,1.99-0.975,2.922-1.574
				c0.039,0.004,0.073,0.027,0.113,0.018c0.232-0.058,0.47-0.072,0.706-0.094c-0.472,0.691-1.027,1.412-1.681,2.167
				c-0.316,0.021-0.631,0.047-0.94,0.124c-0.186,0.046-0.298,0.233-0.254,0.418c0.046,0.185,0.232,0.297,0.418,0.254
				c0.023-0.006,0.047-0.004,0.071-0.01c-0.616,0.667-1.298,1.356-2.043,2.062c-0.224,0.026-0.45,0.033-0.669,0.088
				c-0.186,0.046-0.298,0.233-0.254,0.418c0.022,0.09,0.08,0.162,0.154,0.208c-2.555,2.328-5.769,4.835-9.589,7.422
				c-1.897,1.299,1.176,5.981,6.235,3.973l18.559-7.367c6.068-2.409,8.375-3.324,13.251-5.26c0.17-0.064,0.329-0.153,0.473-0.264
				C168.765,434.335,168.916,433.175,168.293,432.367z M138.147,427.705c-0.026-0.065-0.099-0.249,0.391-0.504l0.178-0.086
				c1.743-0.692,3.897,1.791,4.695,2.809C141.431,429.709,138.32,428.561,138.147,427.705z M137.692,432.331
				c-0.388-0.115-0.708-0.392-0.878-0.759c-0.07-0.109-0.066-0.25,0.011-0.354c0.481-0.728,3.587-0.885,6-0.818
				c0.09,0.015,0.179,0.03,0.265,0.043C141.707,431.309,139.152,432.725,137.692,432.331z"/>
		</g>
		<g>
			<polygon style="fill:#F2B269;" points="166.548,410.148 155.169,408.548 156.317,436.429 167.709,438.031 			"/>
			<path style="fill:#263238;" d="M153.551,431.228l4.306-0.344c0.974-0.078,1.915,0.343,2.553,1.083
				c2.754,3.193,4.518,1.762,6.964-1.642c1.701-0.337,2.321,1.596,2.503,2.115l4.154,11.452c0.358,0.955-0.127,2.02-1.082,2.378
				c-0.17,0.064-0.348,0.102-0.529,0.114c-5.229,0.418-7.703,0.616-14.211,1.136l-19.904,1.59c-5.426,0.434-6.987-4.945-4.793-5.629
				c9.873-3.024,16.753-6.55,19.626-9.722C153.674,433.199,153.052,432.863,153.551,431.228z"/>
			<path style="fill:#407BFF;" d="M147.45,435.731c1.356-0.141,2.695-0.424,3.993-0.842c0.12-0.054,0.174-0.197,0.12-0.317
				c-0.029-0.065-0.087-0.114-0.156-0.133c-0.628-0.247-6.213-2.333-7.486-1.269c-0.24,0.185-0.353,0.491-0.291,0.787
				c0.051,0.557,0.364,1.057,0.843,1.347C145.395,435.759,146.438,435.909,147.45,435.731z M150.574,434.632
				c-1.565,0.422-4.485,1.052-5.781,0.236c-0.337-0.224-0.561-0.583-0.616-0.983c-0.035-0.125,0.01-0.258,0.115-0.335
				C144.994,432.97,148.26,433.827,150.574,434.632z"/>
			<path style="fill:#407BFF;" d="M151.388,434.907c0.056,0.012,0.115,0.007,0.169-0.013c0.067-0.069,0.087-0.17,0.05-0.259
				c-0.018-0.225-1.707-5.423-4.631-4.85c-0.723,0.157-0.906,0.525-0.91,0.823c-0.071,1.42,3.529,3.806,5.2,4.352L151.388,434.907z
				 M147.304,430.183c1.869-0.149,3.199,2.857,3.663,4.064c-1.831-0.787-4.467-2.798-4.381-3.668
				c-0.006-0.07-0.021-0.267,0.522-0.367L147.304,430.183z"/>
			<path style="fill:none;stroke:#407BFF;stroke-width:0.5;stroke-linecap:round;stroke-linejoin:round;stroke-miterlimit:10;" d="
				M150.828,434.789c1.499,0.084,2.946,0.86,3.845,2.063"/>
			<path style="fill:none;stroke:#407BFF;stroke-width:0.5;stroke-linecap:round;stroke-linejoin:round;stroke-miterlimit:10;" d="
				M148.312,437.018c1.499,0.084,2.946,0.86,3.845,2.063"/>
			<path style="fill:none;stroke:#407BFF;stroke-width:0.5;stroke-linecap:round;stroke-linejoin:round;stroke-miterlimit:10;" d="
				M145.118,438.977c1.499,0.084,2.946,0.86,3.845,2.063"/>
		</g>
		
			<path style="opacity:0.2;fill:none;stroke:#000000;stroke-width:0.5;stroke-linecap:round;stroke-linejoin:round;stroke-miterlimit:10;enable-background:new    ;" d="
			M147.678,236.998c0,0,6.267,3.169,17.541,2.121c18.334-1.704,32.27-8.349,32.27-8.349"/>
		<g>
			<path style="fill:#407BFF;" d="M148.856,239.119c0,0-33.978,67.46-35.674,92.515c-1.869,27.478,30.956,91.503,30.956,91.503
				l17.58-8.198c0,0-22.848-60.637-21.221-81.702c5.191-30.12,41.755-89.124,41.755-89.124L148.856,239.119z"/>
			<path style="opacity:0.2;enable-background:new    ;" d="M166.519,255.107c-8.213,3.726-10.926,26.504-10.569,36.828
				c5.768-12.309,11.997-24.352,16.981-33.557C171.82,257.712,167.647,254.47,166.519,255.107z"/>
			<path style="fill:#407BFF;" d="M148.621,234.562l49.283,1.603c0,0,0.32,15.123-3.413,26.382l-48.888-15.942L148.621,234.562z"/>
			<path style="fill:#407BFF;" d="M165.364,238.115c0,0-10.913,75.523-11.271,100.867c-0.404,27.778-0.179,84.154-0.179,84.154
				h17.16c0,0,7.106-52.095,9.898-79.02c3.172-30.673,15.572-91.37,15.572-91.37L165.364,238.115z"/>
			<polygon style="opacity:0.2;enable-background:new    ;" points="153.852,392.465 153.898,418.586 150.967,419.952 
				152.157,387.256 			"/>
			
				<path style="opacity:0.2;fill:none;stroke:#000000;stroke-width:0.5;stroke-linecap:round;stroke-linejoin:round;stroke-miterlimit:10;enable-background:new    ;" d="
				M180.258,247.426c0.644,1.766,2.053,3.237,3.789,3.958c1.736,0.721,3.773,0.679,5.478-0.111"/>
		</g>
		<g>
			<path style="fill:#263238;" d="M148.96,201.414c-0.254,0.567-0.531,1.134-0.819,1.688c-3.265,6.237-6.379,10.412-9.229,12.809
				c-3.911,3.26-7.36,3.17-10.059,0.387c-4.672-4.82-0.335-16.933-0.115-16.933c0.219,0,5.364,1.289,5.364,1.289l0.415-1.289
				c0.611-1.92,1.857-5.67,3.461-9.781c3.08-7.809,7.544-16.946,11.697-17.384C149.675,172.097,155.408,187.162,148.96,201.414z"/>
			<polygon style="opacity:0.2;enable-background:new    ;" points="144.304,199.606 143.066,211.356 140.821,214.073 
				141.852,198.922 			"/>
			<path style="opacity:0.2;enable-background:new    ;" d="M136.68,210.598c0.049-2.927-0.186-5.851-0.704-8.733l-1.915-1.154
				c0.611-1.719,1.539-5.198,3.142-8.878C142.729,199.378,136.934,210.194,136.68,210.598z"/>
			<path style="fill:#263238;" d="M195.742,209.136c0.473,11.87,2.319,24.886,2.169,27.862c-15.689,9.379-44.66,10.927-51.392,5.703
				c-0.199-1.293,1.531-5.197,0.378-5.703c-10.978-4.829,1.993-64.659,2.777-64.89c4.224-0.97,8.51-1.649,12.828-2.03
				c6.322-0.318,12.655-0.318,18.976,0c5.026,0.267,10.033,0.822,14.996,1.661c-1.931,8.692-3.013,17.55-3.23,26.451
				C193.003,203.612,195.558,204.417,195.742,209.136z"/>
			<path style="fill:#F2B269;" d="M134.194,187.243c-1.782,0.324-3.536,0.783-5.249,1.373c-0.438,0.3-1.396,5.826-1.257,6.922
				c0.081,0.565,2.515,5.491,2.515,5.491c0.992,0.542,4.005,0.436,4.005,0.436L134.194,187.243z"/>
			<path style="fill:#263238;" d="M173,181.267c0,0,13.22-6.425,15.827-11.409c2.607-4.983-3.184-10.013-12.874-10.048
				c-9.69-0.035-19.53,3.864-18.342,11.317c1.188,7.452,5.618,10.082,5.618,10.082S166.09,177.726,173,181.267z"/>
			<path style="fill:#F2B269;" d="M177.807,170.539c-3.865,2.953-8.014,8.156-10.482,8.075c-2.096-0.074-3.195-3.948-4.146-5.817
				c2.653-4.038,1.435-3.988-0.791-7.576l9.667-13.947C172.62,157.781,172.12,167.574,177.807,170.539z"/>
			<path style="opacity:0.2;enable-background:new    ;" d="M168.132,156.962l-5.768,8.26c0.653,1.023,1.571,1.926,2.023,3.052
				c2.722-1.234,5.233-4.356,5.487-7.598C170.082,158.623,168.928,156.95,168.132,156.962z"/>
			<path style="fill:#263238;" d="M144.703,193.46c0.147,0.473-0.087,0.986-0.521,1.146c-0.041,0.015-0.083,0.026-0.125,0.034
				l-9.159,1.946c-0.508,0.065-0.988-0.264-1.154-0.791l-5.641-19.184c-0.142-0.534,0.135-1.092,0.623-1.256l9.159-1.946
				c0.56-0.046,1.076,0.333,1.246,0.917L144.703,193.46z"/>
			<path style="opacity:0.2;fill:#FFFFFF;enable-background:new    ;" d="M144.703,193.46c0.147,0.473-0.087,0.986-0.521,1.146
				c-0.041,0.015-0.083,0.026-0.125,0.034l-9.159,1.946c-0.508,0.065-0.988-0.264-1.154-0.791l-5.641-19.184
				c-0.142-0.534,0.135-1.092,0.623-1.256l9.159-1.946c0.56-0.046,1.076,0.333,1.246,0.917L144.703,193.46z"/>
			<path style="opacity:0.5;enable-background:new    ;" d="M137.761,174.553c-0.149-0.511-0.566-0.847-1.044-0.896l-7.991,1.698
				c-0.488,0.163-0.765,0.722-0.623,1.256l5.641,19.184c0.139,0.443,0.505,0.731,0.919,0.777l8.023-1.705
				c0.042-0.008,0.084-0.019,0.125-0.035c0.435-0.16,0.668-0.673,0.521-1.146L137.761,174.553z"/>
			<g>
				<path style="fill:#F2B269;" d="M150.092,193.163l-7.927-5.195l0.146,11.82c0,0,7.839,3.337,9.218-0.854L150.092,193.163z"/>
				<path style="fill:#F2B269;" d="M133.894,194.914l0.039,0.664c0.141,2.436,2.183,4.325,4.623,4.277l4.007,0.001l-0.398-11.888
					L138.199,189C135.537,189.692,133.735,192.168,133.894,194.914z"/>
				<path style="fill:#F2B269;" d="M149.674,192.886c2.448,1.16,12.713,8.985,12.713,8.985l-5.162,6.173l-8.746-8.739
					L149.674,192.886z"/>
			</g>
			<path style="opacity:0.2;enable-background:new    ;" d="M153.852,206.323c0,0,16.866,23.726,28.4,18.757
				s13.49-15.945,13.49-15.945l-14.778,9.237l-27.113-14.134V206.323z"/>
			<path style="fill:#263238;" d="M156.216,194.221c0,0,20.764,12.241,23.002,13.03c2.238,0.789,6.521-17.743,8.079-22.694
				c1.557-4.951,5.545-12.316,9.075-12.819c0,0,11.356-0.47,6.407,18.354c-4.949,18.824-12.913,32.147-21.853,32.46
				c-8.94,0.313-28.09-17.872-28.09-17.872L156.216,194.221z"/>
			<g>
				<path style="fill:#F2B269;" d="M129.848,188.352c1.681-0.751,3.373-1.506,5.163-1.937c0.264-0.063,0.538-0.12,0.804-0.069
					c0.266,0.051,0.524,0.237,0.58,0.502c0.071,0.339-0.192,0.648-0.442,0.887c-1.275,1.221-2.729,2.255-4.301,3.058"/>
			</g>
			
				<path style="opacity:0.2;fill:none;stroke:#000000;stroke-width:0.5;stroke-linecap:round;stroke-linejoin:round;stroke-miterlimit:10;enable-background:new    ;" d="
				M152.836,204.68l3.38-10.459c0,0,20.764,12.241,23.002,13.03c2.238,0.789,7.745-16.359,9.302-21.31"/>
			<path style="opacity:0.2;enable-background:new    ;" d="M188.348,170.624c0,0-15.818,12.5-19.859,12.827
				C168.489,183.451,184.066,180.081,188.348,170.624z"/>
			<path style="fill:none;stroke:#FFFFFF;stroke-width:0.25;stroke-linecap:round;stroke-linejoin:round;stroke-miterlimit:10;" d="
				M165.271,182.714c-0.502-1.474-1.629-3.945-3.044-4.596c-0.362-0.167-0.755-0.298-1.152-0.266
				c-0.397,0.031-0.799,0.256-0.945,0.627c-0.228,0.579,0.219,1.186,0.636,1.648c0.567,0.628,1.115,1.188,1.903,1.495
				C163.452,181.928,164.478,182.624,165.271,182.714"/>
			<path style="fill:none;stroke:#FFFFFF;stroke-width:0.25;stroke-linecap:round;stroke-linejoin:round;stroke-miterlimit:10;" d="
				M165.463,182.711c1.557,0.032,4.264-0.181,5.36-1.287c0.28-0.283,0.538-0.607,0.644-0.991c0.106-0.384,0.033-0.838-0.266-1.102
				c-0.466-0.412-1.19-0.2-1.767,0.034c-0.784,0.318-1.498,0.641-2.056,1.277C166.824,181.271,165.819,181.997,165.463,182.711"/>
			<path style="fill:none;stroke:#FFFFFF;stroke-width:0.25;stroke-linecap:round;stroke-linejoin:round;stroke-miterlimit:10;" d="
				M165.322,182.956c-1.039,4.413-1.515,8.958-1.414,13.49"/>
			<path style="fill:none;stroke:#FFFFFF;stroke-width:0.25;stroke-linecap:round;stroke-linejoin:round;stroke-miterlimit:10;" d="
				M165.612,182.714c-0.457,4.566,1.064,9.89,2.962,14.068"/>
			<path style="opacity:0.2;enable-background:new    ;" d="M147.311,219.177c0.165,0.055,14.652,0.466,14.652,0.466
				s8.255,7.422,12.001,8.15l0.833,6.77c0,0-12.41,5.484-24.976,1.243C140.569,232.684,147.311,219.177,147.311,219.177z"/>
			<path style="fill:#FFFFFF;" d="M134.405,177.945c0.151,0.598-0.106,1.179-0.574,1.298c-0.468,0.118-0.97-0.271-1.121-0.87
				c-0.151-0.599,0.106-1.18,0.574-1.298C133.752,176.957,134.254,177.346,134.405,177.945z"/>
			<path style="opacity:0.2;enable-background:new    ;" d="M180.255,208.367c0,0,1.912,7.19,3.034,6.107
				c1.122-1.083-0.503-3.556-0.503-3.556s5.146,2.3,3.656,0.558C184.952,209.734,180.255,208.367,180.255,208.367z"/>
		</g>
		<g>
			<path style="fill:#263238;" d="M151.692,138.979c4.12,1.628,3.406,6.105-3.271,14.347c-4.229-3.534-6.613-11.7-4.476-14.354
				C146.081,136.317,148.097,137.567,151.692,138.979z"/>
			<path style="fill:#F2B269;" d="M167.906,136.867c-4.084-5.369-11.747-6.412-17.116-2.328c-7.398,5.644-5.011,18.59-1.027,25.722
				c4.436,7.94,16.068,8.973,20.697,0.656c3.089-5.536,1.55-10.502-0.318-19.146C169.771,139.99,169.007,138.315,167.906,136.867z"
				/>
			<g>
				<path style="fill:#263238;" d="M158.499,148.858c0.216,0.895-0.199,1.732-0.806,1.833c-0.607,0.101-1.204-0.567-1.363-1.476
					c-0.159-0.909,0.213-1.736,0.807-1.834C157.729,147.283,158.337,147.934,158.499,148.858z"/>
				<path style="fill:#263238;" d="M150.503,150.544c0.216,0.896-0.213,1.736-0.807,1.834c-0.593,0.098-1.205-0.567-1.363-1.476
					c-0.159-0.909,0.214-1.736,0.807-1.834C149.733,148.971,150.354,149.678,150.503,150.544z"/>
				<path style="fill:#263238;" d="M146.449,146.113c0.149,0.052,0.314,0.022,0.434-0.081c0.787-0.73,1.872-1.046,2.928-0.853
					c0.223,0.062,0.454-0.068,0.517-0.292c0.062-0.224-0.069-0.455-0.292-0.517c-0.001,0-0.001,0-0.002,0
					c-1.329-0.279-2.71,0.104-3.706,1.027c-0.178,0.148-0.202,0.413-0.053,0.591c0.002,0.003,0.004,0.005,0.007,0.007
					C146.33,146.043,146.387,146.083,146.449,146.113z"/>
				<path style="fill:#263238;" d="M159.06,144.217c0.084-0.017,0.16-0.059,0.218-0.121c0.122-0.197,0.062-0.456-0.135-0.578
					c-0.003-0.002-0.005-0.003-0.008-0.005c-1.152-0.727-2.586-0.847-3.843-0.323c-0.208,0.102-0.295,0.353-0.193,0.561l0,0.001
					c0.106,0.204,0.354,0.289,0.562,0.193l0,0c1.004-0.385,2.132-0.272,3.04,0.304C158.82,144.291,158.951,144.279,159.06,144.217z"
					/>
			</g>
			<g>
				<path style="fill:#263238;" d="M164.884,135.056c-3.735,2.376,4.08,12.761,7.337,22.478c7.597-8.16,2.88-21.748,0.245-23.945
					C169.832,131.391,168.175,132.993,164.884,135.056z"/>
				<path style="fill:#F2B269;" d="M176.981,147.276c-0.169,2.426-1.294,4.686-3.128,6.283c-2.442,2.098-5.023,0.239-5.491-2.778
					c-0.39-2.685,0.363-7.088,3.38-7.997C174.76,141.877,177.151,144.295,176.981,147.276z"/>
				<path style="opacity:0.1;fill:none;stroke:#000000;stroke-width:0.5;stroke-miterlimit:10;" d="M170.531,150.602
					c-0.368-1.603,0.014-3.362,1.014-4.668c0.425-0.555,1.103-1.067,1.769-0.854"/>
			</g>
			<g>
				<path style="fill:#263238;" d="M156.916,157.072c1.699-0.847,3.198-2.047,4.398-3.519c0.21,0.251,0.381,0.531,0.509,0.832
					c0.243,0.528,0.353,1.109,0.319,1.689c-0.069,1.188-0.8,2.605-3.309,3.877c-0.181,0.104-0.367,0.198-0.557,0.281
					c-0.687-0.952-1.442-1.854-2.259-2.698C156.017,157.536,156.363,157.376,156.916,157.072z"/>
				<path style="fill:#FFFFFF;" d="M161.269,153.562c0.21,0.251,0.381,0.531,0.509,0.832c-0.37,1.091-1.865,2.254-4.218,3.473
					l-0.689-0.786C158.57,156.233,160.069,155.034,161.269,153.562z"/>
				<path style="fill:#FF3636;" d="M159.635,158.039c0.713-0.797,1.562-1.462,2.507-1.964c-0.069,1.188-0.8,2.605-3.309,3.877
					C158.895,159.246,159.175,158.577,159.635,158.039z"/>
			</g>
			<path style="fill:#DE842C;" d="M152.545,148.661c-0.524,2.525-1.395,4.966-2.587,7.253c1.207,0.589,2.613,0.614,3.841,0.069
				L152.545,148.661z"/>
			<path style="fill:#263238;" d="M170.147,135.624c0,0,0.991-3.334-5.272-6.829c-6.263-3.495-16.795-1.269-23.792,3.034
				c-6.997,4.303,0.93,10.474,4.208,10.763l-0.868-1.154c3.513,0.325,7.06-0.069,10.397-1.154l-2.055-0.75
				C152.765,139.534,165.902,137.873,170.147,135.624z"/>
		</g>
	</g>
</g>
</svg>
